# xmcd
#
# Track frame offsets: 
#        150
#        101234
#        199466
#
# Disc length: 3852 seconds
#
# Revision: 1
# Processed by: cddbd v1.5.2PL0 Copyright (c) Steve Scherf et al.
# Submitted via: ExactAudioCopy v0.95b4
#
DISCID=290f0a03
DTITLE=C. S. Lewis - The Hourse And His Boy - Read by Alex Jennings
DYEAR=2004
DGENRE=Audio Books
TTITLE0=ch1_Horse and his boy
TTITLE1=ch2_A Wayside Adventure
TTITLE2=ch3_At The Gates Of Tashbaan
EXTD=
EXTT0=
EXTT1=
EXTT2=
PLAYORDER=
